<svg width="201" height="44" viewBox="0 0 201 44" fill="none" xmlns="http://www.w3.org/2000/svg">
<path d="M83.5051 35V8.81818H94.3204C96.2807 8.81818 97.9724 9.2017 99.3957 9.96875C100.828 10.7273 101.931 11.7884 102.707 13.152C103.482 14.5071 103.87 16.0838 103.87 17.8821C103.87 19.6889 103.474 21.2699 102.681 22.625C101.897 23.9716 100.776 25.0156 99.319 25.7571C97.8616 26.4986 96.1315 26.8693 94.1287 26.8693H87.4554V21.8835H92.9525C93.9071 21.8835 94.704 21.7173 95.3432 21.3849C95.9909 21.0526 96.4809 20.5881 96.8133 19.9915C97.1457 19.3864 97.3119 18.6832 97.3119 17.8821C97.3119 17.0724 97.1457 16.3736 96.8133 15.7855C96.4809 15.1889 95.9909 14.7287 95.3432 14.4048C94.6954 14.081 93.8986 13.919 92.9525 13.919H89.8332V35H83.5051ZM121.141 16.6676C121.056 15.7301 120.677 15.0014 120.004 14.4815C119.339 13.9531 118.389 13.6889 117.153 13.6889C116.335 13.6889 115.653 13.7955 115.107 14.0085C114.562 14.2216 114.153 14.5156 113.88 14.8906C113.607 15.2571 113.467 15.679 113.458 16.1562C113.441 16.5483 113.518 16.8935 113.688 17.1918C113.867 17.4901 114.123 17.7543 114.455 17.9844C114.796 18.206 115.205 18.402 115.683 18.5724C116.16 18.7429 116.697 18.892 117.293 19.0199L119.543 19.5312C120.839 19.8125 121.981 20.1875 122.97 20.6562C123.967 21.125 124.802 21.6832 125.475 22.331C126.157 22.9787 126.673 23.7244 127.022 24.5682C127.372 25.4119 127.551 26.358 127.559 27.4062C127.551 29.0597 127.133 30.4787 126.306 31.6634C125.48 32.848 124.291 33.7557 122.739 34.3864C121.197 35.017 119.335 35.3324 117.153 35.3324C114.962 35.3324 113.053 35.0043 111.426 34.348C109.798 33.6918 108.532 32.6946 107.629 31.3565C106.725 30.0185 106.261 28.3267 106.235 26.2812H112.295C112.346 27.125 112.572 27.8281 112.972 28.3906C113.373 28.9531 113.923 29.3793 114.622 29.669C115.329 29.9588 116.147 30.1037 117.076 30.1037C117.928 30.1037 118.653 29.9886 119.249 29.7585C119.855 29.5284 120.319 29.2088 120.643 28.7997C120.967 28.3906 121.133 27.9219 121.141 27.3935C121.133 26.8991 120.98 26.4773 120.681 26.1278C120.383 25.7699 119.923 25.4631 119.301 25.2074C118.687 24.9432 117.903 24.7003 116.948 24.4787L114.212 23.8395C111.945 23.3196 110.16 22.4801 108.856 21.321C107.552 20.1534 106.904 18.5767 106.913 16.5909C106.904 14.9716 107.339 13.5526 108.217 12.3338C109.095 11.1151 110.309 10.1648 111.86 9.48295C113.411 8.80114 115.18 8.46023 117.166 8.46023C119.194 8.46023 120.954 8.8054 122.445 9.49574C123.945 10.1776 125.109 11.1364 125.935 12.3722C126.762 13.608 127.184 15.0398 127.201 16.6676H121.141ZM137.032 35L129.413 8.81818H136.406L140.356 25.9744H140.573L145.086 8.81818H150.788L155.301 26.0128H155.518L159.481 8.81818H166.461L158.855 35H152.757L148.039 19.1222H147.835L143.117 35H137.032ZM169.075 35V15.3636H175.327V35H169.075ZM172.208 13.0753C171.33 13.0753 170.575 12.7855 169.945 12.206C169.314 11.6179 168.999 10.9105 168.999 10.0838C168.999 9.26562 169.314 8.56676 169.945 7.98722C170.575 7.39915 171.33 7.10511 172.208 7.10511C173.094 7.10511 173.848 7.39915 174.47 7.98722C175.101 8.56676 175.416 9.26562 175.416 10.0838C175.416 10.9105 175.101 11.6179 174.47 12.206C173.848 12.7855 173.094 13.0753 172.208 13.0753ZM185.557 23.8011V35H179.306V15.3636H185.25V18.9688H185.468C185.902 17.767 186.644 16.8253 187.692 16.1435C188.741 15.4531 189.989 15.108 191.438 15.108C192.819 15.108 194.016 15.419 195.03 16.0412C196.053 16.6548 196.846 17.5156 197.408 18.6236C197.979 19.723 198.26 21.0099 198.252 22.4844V35H192V23.7116C192.009 22.6207 191.732 21.7685 191.17 21.1548C190.616 20.5412 189.844 20.2344 188.856 20.2344C188.199 20.2344 187.62 20.3793 187.117 20.669C186.623 20.9503 186.239 21.3551 185.966 21.8835C185.702 22.4119 185.566 23.0511 185.557 23.8011Z" fill="white"/>
<path d="M22.0236 22.7339L12.5236 35.7339C10.0236 38.2339 3.02356 38.7339 2.52356 30.7339L8.52356 11.2339C9.02356 8.73392 11.0236 5.73392 17.0236 7.73389C21.5236 9.23389 32.5236 11.7339 42.5236 7.73386C45.1902 6.56719 50.8236 5.93385 52.0236 12.7338L57.5236 30.7339C58.0236 34.2339 55.0236 39.7339 48.0236 36.2339L38.0236 22.7339" stroke="#379BFF" stroke-width="5" stroke-linecap="round"/>
</svg>
