<svg
      width="20"
      height="20"
      viewBox="0 0 28 28"
      fill="none"
      xmlns="http://www.w3.org/2000/svg"
    >
      <path
        fillRule="evenodd"
        clipRule="evenodd"
        d="M23.0729 5.16829C23.3612 5.04695 23.6768 5.0051 23.9868 5.0471C24.2967 5.08909 24.5898 5.21341 24.8354 5.40709C25.081 5.60078 25.2702 5.85676 25.3834 6.14839C25.4965 6.44002 25.5294 6.75664 25.4786 7.06529L22.8326 23.1151C22.5759 24.6633 20.8773 25.5511 19.4574 24.78C18.2698 24.1348 16.5058 23.1408 14.9191 22.1036C14.1258 21.5845 11.6956 19.922 11.9943 18.739C12.2509 17.7275 16.3343 13.9265 18.6676 11.6666C19.5834 10.7788 19.1658 10.2666 18.0843 11.0833C15.3986 13.111 11.0866 16.1945 9.66093 17.0625C8.40326 17.8278 7.74759 17.9585 6.96359 17.8278C5.53326 17.5898 4.20676 17.2211 3.12409 16.772C1.66109 16.1653 1.73226 14.154 3.12293 13.5683L23.0729 5.16829Z"
        fill="white"
      />
    </svg>